<?xml version="1.0" encoding="utf-8"?>
<!-- Generator: Adobe Illustrator 22.0.0, SVG Export Plug-In . SVG Version: 6.00 Build 0)  -->
<svg version="1.1" id="Layer_1" xmlns="http://www.w3.org/2000/svg" xmlns:xlink="http://www.w3.org/1999/xlink" x="0px" y="0px"
	 viewBox="0 0 193.9 271.8" style="enable-background:new 0 0 193.9 271.8;" xml:space="preserve">
<style type="text/css">
	.st0{fill:#DB1B1B;}
</style>
<path d="M36.9,0C26.8,0,17.1,4.2,10.1,11.5s-10.6,17.3-10,27.4l7,128.8C7.9,183,20.6,195,35.9,195h2c15.3,0,28-12,28.8-27.3l7-128.8
	c0.6-10.1-3.1-20.1-10.1-27.4S47.1,0,36.9,0z"/>
<path class="st0" d="M47.5,166.6c-0.3,5.1-4.5,9.1-9.6,9.1h-2c-5.1,0-9.3-4-9.6-9.1l-7-128.8c-0.3-6.5,2.9-12.7,8.6-16.1
	s12.6-3.4,18.2,0c5.6,3.4,8.9,9.6,8.6,16.1L47.5,166.6z"/>
<circle cx="38.4" cy="243" r="28.8"/>
<circle class="st0" cx="38.4" cy="243" r="9.6"/>
<path d="M156.9,0c-10.1,0-19.8,4.2-26.8,11.5c-7,7.4-10.6,17.3-10,27.4l7,128.8c0.8,15.3,13.5,27.3,28.8,27.3h2
	c15.3,0,28-12,28.8-27.3l7-128.8c0.6-10.1-3.1-20.1-10.1-27.4C176.8,4.1,167.1,0,156.9,0z"/>
<path class="st0" d="M167.5,166.6c-0.3,5.1-4.5,9.1-9.6,9.1h-2c-5.1,0-9.3-4-9.6-9.1l-7-128.8c-0.3-6.5,2.9-12.7,8.6-16.1
	c5.6-3.4,12.6-3.4,18.2,0c5.6,3.4,8.9,9.6,8.6,16.1L167.5,166.6z"/>
<circle cx="158.4" cy="243" r="28.8"/>
<circle class="st0" cx="158.4" cy="243" r="9.6"/>
</svg>
