<?xml version="1.0" encoding="utf-8"?>
<!-- Generator: Adobe Illustrator 22.0.0, SVG Export Plug-In . SVG Version: 6.00 Build 0)  -->
<svg version="1.1" id="Layer_1" xmlns="http://www.w3.org/2000/svg" xmlns:xlink="http://www.w3.org/1999/xlink" x="0px" y="0px"
	 viewBox="0 0 512 512" style="enable-background:new 0 0 512 512;" xml:space="preserve">
<style type="text/css">
	.st0{fill:#686C83;}
	.st1{fill:#FFFFFF;}
</style>
<g>
	<path class="st0" d="M502,195.5c0,102.5-83.1,185.5-185.5,185.5S130.9,298,130.9,195.5S214,10,316.5,10S502,93.1,502,195.5z"/>
	<path class="st1" d="M246.8,23.5L316.3,66v64.4l-58,42.1l-67.7-15.2L177.1,73L246.8,23.5z"/>
	<path class="st1" d="M132.1,216.4l58.5-59l67.7,15.2l22.2,68.2l-41.8,64.4l-82.3-15.8L132.1,216.4z"/>
	<path class="st1" d="M379.5,21l-62.8,45v64.4l58,42.1l67.7-15.2l10.2-87.9L379.5,21z"/>
	<path class="st1" d="M500.7,217.3l-58.4-60l-67.7,15.2l-22.2,68.2l41.8,64.4l82.1-15.4L500.7,217.3z"/>
	<path class="st1" d="M352.5,377.6l41.8-72.5l-41.8-64.4h-72.1l-41.8,64.4l41.8,72.5H352.5z"/>
</g>
<path d="M485.6,293.6c13.1-22.6,21.9-48,25.1-75.1c0-0.1,0-0.2,0-0.3c0.9-7.5,1.3-15,1.3-22.7c0-50.8-19.5-97.1-51.3-131.9
	c-0.5-0.7-1.1-1.4-1.8-1.9c-20.7-22-46.4-39.3-75.3-49.8c-0.5-0.2-1.1-0.4-1.6-0.6C361.5,4,339.4,0,316.5,0c-25.6,0-50.1,5-72.5,14
	c-0.6,0.2-1.2,0.4-1.8,0.7c-27.6,11.4-52,28.9-71.6,50.8c-0.6,0.6-1.2,1.2-1.7,1.9c-29.8,34.3-47.9,79.2-47.9,128.1
	c0,7.3,0.4,14.6,1.2,21.7c0,0.1,0,0.2,0,0.3c1.5,12.9,4.2,25.5,8,37.6l-105,105c-3.9,3.9-3.9,10.2,0,14.1c2,2,4.5,2.9,7.1,2.9
	s5.1-1,7.1-2.9l98.7-98.7c2.8,6.1,5.8,12.1,9.1,17.8c0.3,0.7,0.7,1.3,1.1,1.9c24.8,41.6,64.6,73.3,111.9,87.6l-70.4,70.4
	c-3.9,3.9-3.9,10.2,0,14.1c2,2,4.5,2.9,7.1,2.9s5.1-1,7.1-2.9l79.2-79.2c10.9,1.9,22,2.9,33.4,2.9c71.2,0,133.7-38.3,167.9-95.4
	C484.8,295.1,485.2,294.4,485.6,293.6z M399.1,294l-35.6-54.8l18.9-58.2l45-10.1l11.7-2.6l51.1,52.5c-3.1,21.5-10.1,41.7-20.3,59.9
	L399.1,294z M269.4,239.3L233.9,294l-71.1-13.6c-10.2-18.4-17.2-38.8-20.2-60.4l51.2-51.6l56.7,12.7l12.6,38.8L269.4,239.3z
	 M170.9,97.5l9,56.4l-39,39.3C141.4,157.8,152.4,124.9,170.9,97.5z M287.7,230.7L270,176.3l46.2-33.6l46.2,33.6l-17.7,54.4H287.7z
	 M492,194l-39.2-40.2l6.9-59.5C479.8,122.5,491.7,156.9,492,194z M442.1,73l-8.9,76.1l-21.5,4.8l-34.8,7.8l-50.2-36.5V71.2
	l54.3-38.9C404.1,41.5,424.9,55.5,442.1,73z M357.1,24.8l-41,29.4l-45.7-28c14.7-4,30.2-6.2,46.2-6.2C330.4,20,344,21.6,357.1,24.8z
	 M246,34.8l60.2,36.9v53.7L270.9,151l-14.8,10.8l-56.7-12.7l-11.6-72.8C204,58.8,223.8,44.5,246,34.8z M178.3,303.7l54,10.4
	l27.5,47.6C227.2,350.5,199,330.2,178.3,303.7z M286.8,368.6l-36.4-63.2l35.5-54.7h61.2l35.5,54.7l-36.4,63.2
	c-9.7,1.7-19.6,2.5-29.7,2.5C306.3,371.1,296.4,370.2,286.8,368.6z M373.2,361.7l27.5-47.6l53.8-10.1
	C433.7,330.3,405.6,350.6,373.2,361.7z"/>
<path d="M137.7,360.1L2.9,494.9c-3.9,3.9-3.9,10.2,0,14.1c2,1.9,4.5,2.9,7.1,2.9s5.1-1,7.1-2.9l134.8-134.8c3.9-3.9,3.9-10.2,0-14.1
	C148,356.2,141.6,356.2,137.7,360.1z"/>
<path d="M166.1,481c-2.6,0-5.2,1.1-7.1,2.9s-2.9,4.4-2.9,7.1c0,2.6,1.1,5.2,2.9,7.1c1.9,1.9,4.4,2.9,7.1,2.9c2.6,0,5.2-1.1,7.1-2.9
	c1.9-1.9,2.9-4.4,2.9-7.1c0-2.6-1.1-5.2-2.9-7.1C171.4,482.1,168.8,481,166.1,481z"/>
</svg>
